Complete name                    : 20 Million Miles To Earth (1957) color Blu ray rip
Format                           : MPEG-PS
File size                        : 1.66 GiB
Duration                         : 1h 22mn
Overall bit rate                 : 2875 Kbps

Video
ID                               : 224 (0xE0)
Format                           : MPEG Video
Format version                   : Version 2
Format profile                   : Main@Main
Format settings, Matrix          : Default
Duration                         : 1h 22mn
Bit rate mode                    : Variable
Bit rate                         : 2440 Kbps
Nominal bit rate                 : 5800 Kbps
Width                            : 720 pixels
Height                           : 404 pixels
Display aspect ratio             : 16:9
Frame rate                       : 23.976 fps
Colorimetry                      : 4:2:0
Scan type                        : Progressive
Bits/(Pixel*Frame)               : 0.350
Stream size                      : 1.41 GiB (85%)

Audio
ID                               : 128 (0x80)
Format                           : AC-3
Format/Info                      : Audio Coding 3
Duration                         : 1h 22mn
Bit rate mode                    : Constant
Bit rate                         : 320 Kbps
Channel(s)                       : 2 channels
Channel positions                : L R
Sampling rate                    : 48.0 KHz
Stream size                      : 189 MiB (11%)



NO subs

 
http://www.imdb.com/title/tt0050084/





